<mxfile host="Electron" modified="2024-04-11T08:50:00.993Z" agent="Mozilla/5.0 (Windows NT 10.0; Win64; x64) AppleWebKit/537.36 (KHTML, like Gecko) draw.io/21.2.8 Chrome/112.0.5615.165 Electron/24.2.0 Safari/537.36" etag="0A5H4nr-ow48fu31wYFd" version="21.2.8" type="device">
  <diagram name="Page-1" id="2XWkQP5S-hDbL94sL5Vg">
    <mxGraphModel dx="2058" dy="1180" grid="1" gridSize="10" guides="1" tooltips="1" connect="1" arrows="1" fold="1" page="1" pageScale="1" pageWidth="3300" pageHeight="4681" background="#999999" math="0" shadow="0">
      <root>
        <mxCell id="0" />
        <mxCell id="1" parent="0" />
        <mxCell id="HT3JYzme7oOu0LbbBRVU-1" value="C++" style="rounded=0;whiteSpace=wrap;html=1;fillColor=#dae8fc;strokeColor=#6c8ebf;fontSize=52;" parent="1" vertex="1">
          <mxGeometry x="1250" y="350" width="370" height="400" as="geometry" />
        </mxCell>
        <mxCell id="HT3JYzme7oOu0LbbBRVU-2" value="QML" style="rounded=0;whiteSpace=wrap;html=1;fillColor=#f8cecc;strokeColor=#b85450;fontSize=52;" parent="1" vertex="1">
          <mxGeometry x="1640" y="350" width="370" height="400" as="geometry" />
        </mxCell>
        <mxCell id="S9IRetqxCuwVArKSv5vH-1" value="QVariantList and QVariantMap" style="rounded=0;whiteSpace=wrap;html=1;fontSize=30;fillColor=#dae8fc;strokeColor=#6c8ebf;" vertex="1" parent="1">
          <mxGeometry x="1260" y="80" width="680" height="140" as="geometry" />
        </mxCell>
        <mxCell id="S9IRetqxCuwVArKSv5vH-2" value="&#xa;The QML engine provides automatic type conversion between &lt;a translate=&quot;no&quot; href=&quot;https://doc.qt.io/qt-6/qvariant.html#QVariantList-typedef&quot; style=&quot;font-size: 30px;&quot;&gt;QVariantList&lt;/a&gt; and JavaScript arrays, and between &lt;a translate=&quot;no&quot; href=&quot;https://doc.qt.io/qt-6/qvariant.html#QVariantMap-typedef&quot; style=&quot;font-size: 30px;&quot;&gt;QVariantMap&lt;/a&gt; and JavaScript objects.&#xa;&#xa;" style="rounded=0;whiteSpace=wrap;html=1;fontSize=30;fillColor=#e1d5e7;strokeColor=#9673a6;" vertex="1" parent="1">
          <mxGeometry x="1140" y="850" width="1060" height="270" as="geometry" />
        </mxCell>
        <mxCell id="S9IRetqxCuwVArKSv5vH-3" value="" style="shape=image;verticalLabelPosition=bottom;labelBackgroundColor=default;verticalAlign=top;aspect=fixed;imageAspect=0;image=data:image/png,iVBORw0KGgoAAAANSUhEUgAAApEAAAIbCAYAAACzAMV1AAAAAXNSR0IArs4c6QAAAARnQU1BAACxjwv8YQUAAAAJcEhZcwAADsMAAA7DAcdvqGQAAE15SURBVHhe7d0HYBzlgfbxRytZLrIt9yJXuXebEsAGgx0MSYxxgBg4JweB0AktIe0LB0mcO0gCIaaFwJkSEkKH0HIQmmkBQoIxLrjgbsu9yFax2uqbd4o0Wq1Wml1JK2n/P2t3Zt5p78y2x+/M7qRNnDS5UvVyJqlswJSeyiATAwAAIGnS0tLcvvo5k6apnhAZLDwSHBEIz5cmw55FKmn4Rx8CCxAs0HY0NFDWESKdooZ8xqdEcGxF25gCjwYAAI0qKVG5lQT0WIEySoh0BuvLTfWGxyYKXk2zVCRHajyaqfD/LCDVpE4DXcpsaKvRZI9IPU/qaGEyIkQ6vbE+9OoMj1Y5n5WRmn+PEFgAAKkoOcG+7YXsqi2KFhojynwh0ukEDpB1hscYC0oAIQmtDk9aoOVKTvIA4pbYUzbYzPbUMcKkGyKdD7m6PusaHh6tsjqWgYDi3JHsfiQPz77YEnrnB1CPpLzC2th/QpzNqb1NTnGU8omTJtnv/NFzYtTCxMNjnAHJiH9ONJ0kPCqt6InAcxZouVpVBEhKZVvVHkoJCT0iAUJvtEDpFFWX2SEyMtM1/LzHKOGx1jRtQRK2KM5Vtr19n+pa0SPKk6/pNPx9H4Gxc1uapDwica+0bT1/7K2JCJqRYdI/TdqEiU5LpF+UVFnr86Eh09St4VPWksCs8UrCKpMgNXZsajyWAFqymh/RzaTZV5qUrWxV4t5DCe3ahs1sT9WAMFkjRDbk8HXs8Oj2WZ2IqVq5OLcmgZ3QtvZfU0jCHkqRB4XnHpKl5kdWC5eUyraqPdTsEto7cc/cdh4Te0uq72zOYM1t9IfJ2CEyIiDWHu0VuF2rEzFJHRo2VVRxzprAGpOkeTe09e2fVNGKHhmeRC1Pzfd+RMVOiiUpeyfulbaux7LlbaazYPu++s5W66d93PFVITIyQNYcjgiQ1kD1oNXn/Lkih1uKBGoU56wtbx/E0vz7JxGta98mA3sIqaTmBxxqi3sPNf+MrUpEtgqo5e2jGq2MNe/cXqffML12iKwRGGsERKNmgIxsfawerD1fnWKMqk8Cs8bPvwMCSEpdkyLOLU2RHZQ6zwMADVH9MdyM4l5pUmrb7JKze+KbuelWWT3S7nMDoz9YGjXGjZ8wscZnXJ0tkDVCotXn/Nn9NTNW5HA09U5QtzhnTWCNCUiV7UwVrWjvtrInAs/bplH9tt/GJWVDU2bvNru492xCD0nzP54tcTvtsRGtjabU7Xh3VdPVDJG+oFh366QvJFo9Ge3aKSurkzLbZSqzfabS09PNJE3GXxNE0ap2T/NXlmcPgGRzPoabW3LWGpdWVNVkcCNd07AWXVFRoZKSEpWWlqmoqEjlZWVWubNOL1R699UhMo4A2aVLF2V3y9be/cUqPlymw6UVKiurcCcAWgLnyV7N99xukMj5IwVdXn3qW19DxKpTrOXXN1/k+MaoK9CSJPJ6jn/etLjnTaS+nuDLqH7lJ2f9dWvMZXmql9n073hNUf9Yoq+vXbsMtc9spw4d2qtnj2wdOJCvQwcPWjvA2QM1gqQdImMExWjlJmT26tXL6mZo+55DVlolOKKl8r/so79g6hf51uEtpzGWHSlyXQ3VkPXXt+yGbkO8dQRag0Rey/HN67yi4pk3kbp6gi+j5jtAcuoQXWMtx696mU3/ztcU9Y+l/vVlWoGyb++eSs9I065du91Sa1/YOyNNIdOpXkx9AdJ0K9W1SxerL0Ob8g4QIFst8wyIdkuWZK8/FvPk9988/v6gdW/MbfXXoy6x1he5XbG01McIaAnie3009NVXW2O8HnlNo26lZeXakrdTFeXO0WfnSHV1Jgz5D137eqtZhd7EptsuI8M+hL199yF7NFqjWG8ayXhD8a+zqdYf7cmdLN42mm7kzdSzrls0dZX7meVGE2u5QKqq6/XSUPHNX5nwepOlMerdWNveWvdhy7dz9151y862M6A/E9otkUbNMGmNdPqqPmK80Vmds+xzIGmBROtgnrjVz+2mlegbWHPV02jOdQGtTXLCSHyvypYU4tqi5to3Lfs92bRI7t2fr05ZnexhLxO6IdJXeV+YdIpN2nTLrK75Frb5Eg1aM99jXMWUebfm5l93MtbfWBpa98jt9W4e86bl3RqDf9meeJcdbVkAGke8X7FprqDjaJp3gebdhpYlWe+rwfb54cMldgb0cqLJhs45kb76V/VahXa/V+AOm5/xMd/CRmtnHk3/DfFp7H0Y+aI2w94tEdHqGO8yG2tbgZYskddcoq9XxK8p9n1bfjzNtjVs+0pKy9S+fXvnE8ANjmnjxo+vPpLtBUfr3i6LHLa6Q4cM1Yq1u+zSunTt0kHtMqqOlDdYWXlYBw8ddoeAVFTfi9l7sXr800eOiyba8hsyXzQNe+MBWq94XxtG/PMm7yd/gs1f8x0g0XV7WtpyqsX/uMTSFMuMV/11GTNyqDZu2mj1pdnf0E4bO268M1dVYDS9ps8Ljt6w0x06dIhWrq3+mnc0v7vtFxo+Yrg7FJ13Me9tO/ZUrafw4F59/wc/UyiU7hQAKae+YOa9Sv28eaKNiybaOho6b6T66gu0ZvG+Loz45yVENobGWk41QqQ0euQQbdy4qeZP/BhVs1YlR6fjDVc3V9avW3YXjR8zMuZt3OgR9u2Uk47TqTOcW+9ePa31hN2lAKmovtdZXQGw4a/P6NMSBoHWr3lfx0HedVq6BT//qTZ+sUxbNqyMejPjfvHzG5yJG1Vij9m7b72iqccd4w7VZsa9++b/uUONpbqRMfgx5wZITw9p0+ZduuPR93XnY+/prife1d1Pv6N7nlusDeu3qrjwkHbv3GHfigoO6U+vfmbfGuq/f/FjbduwpOr24rOPuGNkDx/7pSPdIYcZNuUN9dD/LtTyTxa7Q4kz9fXX0WPqZMYli9lOc6uLqbO3j/11veiC+VH3jxn/3lvPu0P1M9NG2y+NwXuORD4XDFN/M850W6b63pob44PCrKMxPgIaYzneMhqjPgCaU/WrtrECbHL+Q3v+f87XqbPP1PjJx0a9zTj5NHuapqmfWWbkrWF+9P9u0p0Lb40aJE2ZGfejn/7MLWl8TRIizXUd09LStSG/QBsPHdKmooPaUpKvrWUHVFYWtlsbzcHz6gPoVvDMbNiXdUzoOeP0r2lA7hFVt+7ds6vCyydLlunyS8+3+z1m+O+vv+0O1e/CS67ThCNnuEPB1RUaI5m6/9fPfu0O1WaWkayQ6e1P/36+8Pz/sPf/Aw8/Zo+LDGEzTpymh/74uDtUvxNmfl2nn1XzsQqiIfvnv/7fdW5ftTPmfs3ta8nqC1Sx3mSCvQk1jngDIMERaFzN/dpvCs2/Denp6dqxY6cOHjwU9bZx02Z7mubTsH3wwYf/1DXX/bBWkPQCpBlnpmkqTRIiK8LOIenePdsrLbNc+eUHtfvwXu0sds6lTIv43OjQ/bA69Spyh+pmWpVOnXVSrYBnwoj5EUwTav76wv9p5Ihcd4zjS0dN0Xvvf+QOoT5eMIsMeGedc5G9/42P//2pTjj+WLvfMI9N7tDBVQGzJTD/oTjyiInuUDVTzw0bN7tDLVmsgBXvuEiEOACethBAPU25LS1rP0UGyeYKkEaThEjvY+nznVu14cB2HSjfr2IdUmlagV1e6e5/02JpZHUrUKfOzrhYTp9zSp0f/qbchBoTYkxI8A5jel1TblrR/IdnvXGmRcsbZ7r+lkTT75/Ha33zpjEtdt44r9y02Jnw4p8+GnNI2KuDfzness0yzLK8ZfsFrZfHrDNaud/kieO19osN7lC1jz7+RPv359vrMqHchHOPeWxMaDP86/BaNA1T7u1nswxTT1Nfw/R785ibx5vGK/eWV9/+8Zg6eeswzPpNAPZr6Lr945LHvLoaEvyCBskg0zemtvShhbYnkednsuZNJl7PyeIPks0VII0mOpztKLZCY7uOZWrXoUwZ7UvVzrrZrM8rL0AaY3oP0ohuw9yh2EyIiWbP3n1unxMcTKgxzKFsLzSYw9TeodmHHnm8xqFOE4jsQ7bWNH7mcLM3z02/+I0u/PZ/uGNkhxhz+NaMM+s0AcVMb5Zthk15Q1rmTFAx2+WtxyzDtALay7SWZcoiBa2XYQKY2RfefF6rYjTb8ra7fTUdyHf2v7ddXgg2h7JNK7BhWoq9dRj+IN2rZw+7PHK/mO315jGnHnh1NkxQ9MZ5Lc717R+PqZOpm8c8zpGPcUPXbdZngmXz8gJeMoMegPjEF6qS+0pPPAhu2bC8QTe0fhEh0j1LsdI7W7G663SsrtvbEHZ4tG7t2pubL0Raz1H/YkZ0H27fEmHCiccfHMyh7T/cX/3B77UomXDg99cX6/72kteytuBnP3JLHCZUeGFo6bIVNeoQxIsvveYEP194aYig9TIttP4AFeQ8UY8JcR4TSL3zT025t05/651Zp99/3xJ9G00Y9eaJDLcmKHpMi3Nubs1lxuLVyQRPU69oLdkNXbepe+T2tA7mQyHxD4bYGmP5TV1HIB6JPi/jm781X0t7UO6EBt2aXuq8p/gPYfsPbTc6E97sAGfyoHvFmqbiBEgnPGaabqYTIr3foXRUqrSsTMXF9f/IuBe2ojEf7l5YNMHBhBoTDkzXHIY1TEgw5/WZViV/OIjFBLXf3XmfPY9p8WsKpn5m+Yapo//wa13iqVddrbiRTPD0t955vFZHL5iZ/W1Cuj+cmX4zr6mXudV1+oGfWe6zTz5QNU884TaWxe/8w/4yjb+11BN03V5LbOvivdYAxCc5YSR5r9zUCV/xazn7KPIcyMhzJJtS04RIa9+WlBTr2F7DdXT3kTqy6yhNyRqrSR3H2+XOJM4DYPJkOByu+jJOLCZsmVY2E6D8zGFaE1a8sGiY4Qfuu73W+W/eNNFCUl2Wr1htdxv6rd4NGzbb3xgPyrQSmnBrzkk0zCH6ATn97f5ogtbL8AfUug5nm0PlJnxHHro1YcvfYmv2pZnOfFveH868sGoCWkNb7vwB13+uZSz17R+P2R7vPx9eAPaLtW7/8+S3v/lZ1HNFW4em/DhK9M2UDyy0dfE+x5t7vvjUfndpjPU37zZUVFSoR/fu7lBt/fr1tadpaer6Ek18QTL4Pm+SEGny4NjRg3TZzFm67KRTdcn0r+ni6XN10fFf15jRA9WpU5b69OmtHj17qF1mOztEhkINq7w5f80EQ+/wo7mZoBLZwmSGTZDzH8o2AdSbp6GtcmZdJjyZeRrKBBVTJzOPdz6gCTHeuiOXZYKdV24Os5ttNMyXV0zQi5zeiKdeF132/aovophbrFY3c16j2X/etN56TCDz80K6F868wGamNyG+IS2RJoyaFj5vPQ2Zx4i1fyKZbTUtkpHqW7d5nnjjjMjzKdFYmvcDAwguOc/R+P/7x2vK0bD98MifH9PiN15WtB8aN7cP33vdnqYlMVf++83Nv6gVID1ekPzNLQvckoYw+6vhz52qyx7WuNShdec8cd1hX/nQoUO18ovYlz287pqLdMSUSe5QbaFQyL6ZVO+/Es5nS5fr1tt/r1B6O7ekYUxQ884LNIer/S2SaDzmnE0T2kywSuR3NFsL0xJrDu1HBufWz3uDqH7tJaYxP6y8OjXmMoHGlMjrJr55E7vcXrzzBp+v5qs2kTpHaoxlNU59ar8zNeZ2Rqp/2SZIBrmiYDC1lzt6hLns4UZ7R9i/Cd4UIdL+MfGwFRDd4YYyD05aKN3aKU16qibQIC0zRHpvYUFfXZHMchJdhqf222p8IuvTWMsFGlu8r5345kv8ms3xzB98ntqv2ETr7WmM5TROXZpuG+vS1MuPpfa6I0Nkk6Q1EwJNa2J6wJuZhwAJNAf/m0OiYS2RNzkzr3fzI0ACydUYr8GW9Dpure8pLbveTdISCaCp+N9QnFdpYppyeQ1R1zpb6xs+Ukc8r5f4XmPJaYk0gs0X/VWbaN2NxliGkfhymm4b69Mc64hUe53N0hIJAA7zJuTdGooACTSueF9TweZLRswJhveWxkaIBFqVpnyb5g0WQKRE3xca432lMd+bmuJ9LnXfOwmRQKsTtGUvFv9ymiKgpu6bK1BbvK+H1vM6asr/5qLlsUOk9/Vwt1P9JLB7Is+TBNC22C9wpzchjfFBR+gEomvNrw3eGxLXcrbfjYZ2l5ZIAE3MvPnV9QaY6h8MSD3Bn/PV/8Vrza8XXuttESESAIDACEWtF49dYyFEAgDQrBIJMfHOS3Cqif1Rv/r3kf07kdXnRNbsOudB1jwnMnfoUL322t/t0QAAAEgNp5xyqjZs3OjEyzT3sofxhsjS0lJt2bJFxcXF9nWw0biys7OVk5OjzMxMtwQAACA5Gi1EmgC5Zs0a9erVy76FQhwZb0zhcFj79u3Trl27NGrUKIIkAABIqsgQGXfyy8vLU9++fdWnTx8CZBMw+9SE8549e9qtvQAAAC1J3OkvPz9f3bp1c4fQVEyQNKcLAAAAtCQJNSGmp6e7fWgqZh9zvikAAGhpOA4NAACAwFp5iHS/AAQAAIBm5QuR1d/IdnucEvfOKTX33nif/H/r8YW36dZbb9Vtv/u9/vza59pf7o5rKsVv6+rRU/XrVWG3oIUo3qx3H7lF119+iS677kbd/eJKHWhhVQQAAAjKToPur/WYocZpiUzfqzfuekBvb9yqjSsWa9F3p2v87Du0otQd30QqK+tLZ1v13LVn6ocv73OHGyKeeRzFy3+vuWOm6KJHt6rbuCka02O/Xlv0V33BKY0AAKCNabzD2eGumn7173T3oie1+J+P6Cur7tEDHx+2kl6ZDuat17qt+1TsD1PhEh3Ytl4bth9Umde4Ga0sQln+Nm3YtEuFkS2dtdZjJeWKUm39bLm2FxfoUHG5k5zrqo+tjnks4eI92rx+vfLyy6rKaih6Xzed+0uV/ugfWvbqPbrxmu/qezfdreef/6mOTi9VUeFhlVuht2jXRq3PO6Sq6odjjAMAAGihGvWcyLQ09zqLHboqO7NMJQff1g+OztXkk+dp3pcnaOSMBfqg0Bq/+xVdM3WUjv7KWTrt6Ik69y/bo5fVcEgf/vdJGjxsqmbPmaEjvnq7Vqe71S9YXHs9BWt11+yTdfOSPL10zQmacPqdWnMoynSmPp7KKPNUFunTO+ZoxMBJmvX103TssIE69vrXtMedxZO/+AE9lXGxbr5kjNq7ZVXyHtbcSWfrqguP05EzTtNXjhiikWfcp1WmpTbWOAAAgBaqUUNk6cGd2rpxqZ7/+f/TX9Jm66xJ/TR30TKt+/wTLVn+si4q+KMe/qBAm569TS/n3q6Pln+qldu+0F++0SdqmV/pktt0xb29dOtnG/T5spX65NYx2rXVPZwd7l57PR/m6JpX39INR+Ro7h+WaNPr39foyijTWfWpkjaq1jy5S36lC3/bQQuWbNKaZZ9r0+r/1dinL9NNbx5yZzIqtXPVamn8kRpa14Vldn2sHTOf0vKVK7R2w4uat3aBfvbC7vrHAQAAtECNFyIrlunW2ZN19PFn6ZdrZurhNxbq5AHjNOzgE7rhwrmaefx5emjjYRUWlqn/tK9owGvf1ezvLNTrG8vUvkN61DK/Le8t1v4T5utrA5zyzkd8TSf0s3ulrtHX48nIaOf01DOdnzfP5vfeVsHMCzRnsDMc6jVD556SoSUfb1aNMzLTrCxbXl6zzK/b8Tp39hBlmP5OR2rOqT20fsUW59B1rHEAAAAtUOOFyPSJ+vHirdqxbZ3+9ewCzbZC154XLtbMK9/ToG8t0IP/94x+clRHe9LMiT/UW1/8XdcPeEtXTRmjbz61PWpZtUqVl5UrlJmpqmhZXqISN2XVtZ5IDZ2uWqUqw2GVl5bWCIehtJBCoTTn2pG2NOVMnKDQR6/oX/luUaSMDuroZlmr8iouLFWoXYbzAMQaBwAA0AI1ak7JyLDb0lwV2rZslTJnfEfnz5qiISX/1pvLzaHjNOVv26KC7Ek655fP6pkbBmvJ35dqW5Sy6gPGaeo/cbzCi5/WO3tMnKvUnref0Os7zLi612M2LyM9rKLiknqm8/PPk6ZBU49X1uJH9OJmJ7GG97ytx19P17QTcmvM2fnEq3TV0Jd09RV/1Koi76s35dq36nNtM1/g2fuBXnh/j/2lnPCuN/ToK5WaOn2E8wDEGgcAANACNV5OicxiSteYOWepx2Nnauz48Ro9+xmFRnW2yiu197nzNbzvCE2aMlanLMzUty+frpIoZV2cBdm6nnyTbj35n7pgzAiNnzhGX/7fdB0xxFS/7vVI/TXtlL56/YppGn/aXQrVOZ2ff56F2nTMDVp09SH9dNIAjZ44TkPGXqW8yx/STVMjWjEzJ+r6557S+XsXaGq/XhqQm6tBffpqzAVPartZRZ+hyr99mkZOsJYx+hKtOvde3Ti9kzNvrHEAAAAtUNrYceMrLVZvpfM7474fkawedvutbu7QoXrttde0dOlSTZw40RRaKlRSeFiV7bPUwd8YaQkf3qe8nYfVpX9/ZVUUqiyjszq2q1DRnm3aUZipXv37qav9ZZRoZZHCKty5UTvDvTW4f5bCRcUKZzrrjL4eM4+13F3btC+znwZ2y4wxnV/NeeySgp3avLNYWf0GqU9WrGuGV6r0wHZt212oUHaOBvTOUsa2+zXrxHd09b8WaXpBngo6D9CgHu2d3L01xjjXsmXLNHnyZHcIAACg+c065RRt3LDRSo9p5q+xWiLT1T6rdoA0Qh16aOCQHGVnpimjoxfY0tWp12ANG+IPi9HKIoWU1XeYhvXvInPGYGan6nVGX49hLbfP4KowWPd0fjXnMdI791Xu8KH1BEgjTZndcpQ7cqSG9LECpD8Nhjqox+BhGhwREm2xxgEAALQwIbeJ0TSg+Ttuj9sq6Y2zut749PR0VVRwKZYGqUxXh06ZCnk7zy/WOAv7GAAAtBReXDGZMO6WyI4dO2rPnsif3EZUgy7SS8sf1Ond3WG/WOMs+/fvV3Z2tjsEAADQMsQdIgcNGqS9e/faQZLWssZn9unOnTu1a9cu5eTkuKUAAAAtQ9rYsePc78w4h66dL9l4w+4XanzjcnOH6vXXXrMnKS0t1erVq+2wUzUfGoX5uaQePXpo7Nixysys8yRRAACAZmG+WLNhw8aqy1wnFCIBAACQGiJDZOP9TiQAAABSRsKHs7ds2aLi4mLOi2zjzJd7zLmZHFoHACA1NdrhbBMg16xZo169etm3UIhGzbYqHA5r37599pd8Ro0aRZAEACAFNdrh7Ly8PPXt21d9+vQhQLZx5vE1/1Ho2bOn3fIMAAAQd/rLz89Xt27d3CGkAhMkzakLAAAACTUhmqvWIHVwlSIAAOCputqe3fXOh7TPhnQH3fMh3QH7DwAAACnGCYRuJkywJRIAAACpqXFDZEmePnz8Nv34yot10RU/0C0Pv6UNhe64+hz8RE/ccbse/+SQW+DZprfv/63uf3uHOxxb5eaHNe+Y7+jZXW5BovL/rcfvuEsvry13CxyB12OWs/A23XrrrVW3e9/c5o5sIsWb9e4jt+j6yy/RZdfdqLtfXKkDYXccAABAAhotRJasWqSzx03Stx/aoM5jjtSUIelasegGLfyowJ0imq167toz9cOX90ldhyl7xX36n8c+lf+rG5UbX9CCX7yqtNx+bklsadmTddaFczS2s1sQmK9ORvpevbHwz1pRWfP8z/rXE2U5dz2gtzdssb/hbG67Cpru/MLi5b/X3DFTdNGjW9Vt3BSN6bFfry36q77glEYAANAIGidEFn+on59zkw5+71199uo9uvGaK3X1T36tP7/3nn43ozpllR/arg0btutgmRmqVGVFqbZ+tlzbiwt0qLizpp0zUwXPPqF/VrVeVuqLF5/U+i99W3MGm8EyHcxbr3Vb96nYC0PhUhUVHlZ5RYkO7N6jgo7jdcb5szWyozs+1jyV5SrYvl4bdxe7p3pG1qncLY+iS8R6wtb6t63Xhu0HVWbOI422nHBXTb92oe6880779rO51kZF1t9t8AwX79Hm9euVl19WXQdvWqubv22T8g65E5fs15YNm7X3sDtl0fu66dxfqvRH/9Ay+/H4rr530916/vmf6uh0b9vDKtq1UevzDqmqjbVqv0QZBwAA4NMoITL/rfv1WNpFuuXSsWrvljlCcn5CslBLbv+aRoyYpjmnTbW6p+meFSt11+yTdfOSPL10zQmacPqd2j51vk4P/U2Pe62X4TV6/rH1OuY/T1X/gsX6wdG5mnzyPM378gSNnLFAH5iwmfeQ5k76hi77jykaPfYM3f3+g5o78WK9nG+Nq3Oeh615ztQl84/TcafO0fHDB2r6r5aopHJtrTqtqStFmvV669n9iq6ZOkpHf+UsnXb0RJ376D/qXE7Vj7l7Iuu/pkCf3jFHIwZO0qyvn6Zjhw3Usde/pj32tA/r65Pm6tvfmKbpp56kCQOP0LV/+JXmHnGcvvrVY5U77HQtWh9W/uIH9FTGxbr5kjERj4fF3vazddWFx+nIGafpK0cM0cgz7tOq0nrGAQAA+DRCiKzUzlWrpfFHaqh9IZNKbX7jPt1xxx327YG381S65FZdfE9P3b50nVasXKvF1xZo4S9X6ZuvvqUbjsjR3D8s0abXv6/RWcdq/tnd9M7TH8icGVnx+TN6YvsMnTertxUou2vuomVa9/knWrL8ZV1U8Ec9/IEbNvcvV9EZrypvzzv60XDnV9RtsebZvVIV8/+mZctWauWzZ2v7/Q/ow+JRuiayTr7F1WXTs7fp5dzb9dHyT7Vy2xf6y7zjoi8nfaeeu26OZs+erdlfna87PnHTma/+1xX/Rhf+toMWLNmkNcs+16bV/6uxT1+mm950zxXdvUHZV72hz1Z8oXdv6KoHb3hHp7+8QitWf6pFx6/QQ8+t1o4aj0cUuz7WjplPafnKFVq74UXNW7tAP3thd/3jAAAAXI3SEmkufxMuK5PznY1KFe9ap1WrVunjJ+/Un5eXaPO7b2pft3z95apzNG/efN34ZoGKv/hcO9wveWRktHN61EFHfWO20v/2mN7LL9dnz72g4tnn6STzm+Zdx2nYwSd0w4VzNfP48/TQxsMqLLSPi0sdJ2v2rMFKr2r5dMWap/txmju9j0y2yx5zlIaHd2vPYWeUUV2n+vWf9hUNeO27mv2dhXp9Y5nad6g+f7LGcsK9NfW8K3TppZfq0su/qeP6uNP56r/1/bdVMPMCzRnszBfqNUPnnpKhJR9vdvZvj6N08hHZVk+GBo4bqT7jvqIv52ZYwz01fHwfle4/qApro8Ll5e7jEUW343Xu7CHWEiydjtScU3to/YotzqHrWOMAAABcjRAi05QzeZIy/vmKPj5ghkMaPf83uvfeW3R2rhmuVLgirNDgWbrku1fo8ssv1xXX/Vp/Wni2cszoCJmTz9HZPd/S468v1lNP5mvWudPUxSrf88LFmnnlexr0rQV68P+e0U+O8k5GtGR2Uddax23rmSeUoQxv60PpSk9gT2RO/KHe+uLvun7AW7pqyhh986nt7pgIlSHlHH26zjjjDOt2uo4d6IbIqvpXqjIcVnlpaY0AGEoz4TjNDrxK89XVKkhrl2GFT3fQmsYU9p84QaGPXtG/zKH2aDI6qGNVti1XcWGpQtZy7MXGGgcAAOBqlGyQNf0afW/Uq7ruuw/r80LvnL8KWXnIkqYBRx6l9H99pIJxMzVr1izNmjlJ/fv2Uo9QSBnpYRUVl9hz2DLG6xvzB+jDe27Ri5Vf1zeP7WQVVmjbslXKnPEdnT9rioaU/FtvLjeHpe1YVYd45jGi1MlSblpaK8PWNoW939iskr9tiwqyJ+mcXz6rZ24YrCV/X6pDdSwntjQNmnq8shY/ohc3O21/4T1vW4E6XdNOyK235p7OJ16lq4a+pKuv+KNWFXmVLde+VZ9rm/ly0d4P9ML7e6zIai1/1xt69JVKTZ0+wnkyxBoHAADgapxs0G6Mrn76WV1ScItO6N9TOUOHaECvEbro/X6aMDBTWSf9l+48a5UuGT1QY6dM0rABx+iH7xy0Zuyvaaf01etXTNP40xZqtZ130jX2jLPV758fqMO583WE3UKXrjFzzlKPx87U2PHjNXr2MwqNMt/6jkhzNcQzj1G7TmkVS/U/U3urR/ce6p7dU8fevNSKqNX2Pne+hvcdoUlTxuqUhZn69uXT1SXatjUgBXY49gYtuvqQfjppgEZPHKchY69S3uUP6aapvlbU+mRO1PXPPaXz9y7Q1H69NCA3V4P69NWYC57UdlOPPkOVf/s0jZxgLX/0JVp17r26cboJ6/WMAwAAcKWNGTvOTlX2t4bNT9PYxVbXHvSV2d1K5Q7N1euvv6alS5dq4sSJ9tR+ZQd3aNuuAqV17aec3p3Vrio4Vap0/1Zt2Sdl989Rr07eQdgKFe3apn2Z/TSwm/dNkLDKiopU3q6z79CqVXp4n/J2HlaX/v2VVVGosgxrfKhERYcrldmpgzLMusKlKraG23Vsbw83dJ6i4gq169TRra+/TukqKSxSqe/4cnr7zuqUUeZbjzX9nm3aUZipXv37qWvVF1oil3PYSolZal99yqQ1SURdXBUFO7V5Z7Gy+g1Snyx3hshpy4tVWG6FdPcczHBpoYrVUVmZ3v8NrH1+YLu27S5UKDtHA3pnKWPb/Zp14ju6+l+LNL0gTwWdB2hQj/ZOvt0aY5xr2bJlmjx5sjsEAABSxaxZp2jDxg1WLrCSQVqa1xLpRUeXkxrtXk+UoqjaWeFx6IgRGtLHHyCNNGV2H6Thwwf5AqSRrk59BvsCpBGyAl3NAGmEOvTQwCE5ys5MU0ZHd3x6e3XK8gWwUKY6dnICpD3YwHk6ZXkB0vDXKV3ts7qoS5fqWydrWTXXY03fa7CGDfEHSCNyOREB0oisiyu9c1/lDh9aHSCNyGkzrMDo+xJPKDPLFyANa593y1HuyJHW42EFSP86Qh3UY/AwDY4IibZY4wAAQOqysqAXB+M+nJ2enq6KCi5/0upUpqtDp0yFov2HINY4C483AADwxB0iO3bsqD177J/ARmsy6CK9tPxBnd7dHfaLNc6yf/9+ZWebnxcCAACpLu4QOWjQIO3du9cOkrRQtW3m8d25c6d27dqlnJxoP8wEAABSjfvFGt8XaQz3SzT2oN3vjrNuubnOF2uM0tJSrV692g4YtS7nhzYjIyNDPXr00NixY5WZWeOkTwAAkCLsL9Zs2GB/qcZcaCahEAkAAIDUEBki4z6cDQAAgNSV8OHsLVu2qLi4mPMiU5T5oo05T5LD3AAAtG2NdjjbBMg1a9aoV69e9i0UolEz1ZhLQO7bt8/+ws2oUaMIkgAAtGGNdjg7Ly9Pffv2VZ8+fQiQKco87uY/ED179rRbpAEAQOqIO/3l5+erW7du7hBSmQmS5pQGAACQOuwQaR+2tg9aO9yj2HafU2qX2H1+5qo1AFcvAgAgNVTlQisochwaAAAAgREiAQAAEFjjhsiSPH34+G368ZUX66IrfqBbHn5LGwrdcfU5+ImeuON2Pf7JIbfAs01v3/9b3f/2Dnc4tsrND2veMd/Rs7vcgkTl/1uPL7xNd7+2KcoB/UItfep2/fbhfyjuq4i7y7/11lurbve+uc0d2USKN+vdR27R9Zdfosuuu1F3v7hSB8LuOAAAgAZotBBZsmqRzh43Sd9+aIM6jzlSU4aka8WiG7TwowJ3imi26rlrz9QPX94ndR2m7BX36X8e+1T+r2hUbnxBC37xqtJy+7klsaVlT9ZZF87R2M5uQWC+Ohnpe/XW73+jXy14WJ+UOkVVdr6g//7Rz/XbZ9aqzC0KzFr+G3c9oLc3bLG/4Wxuuwqa7vzC4uW/19wxU3TRo1vVbdwUjemxX68t+qu+4JRGAAAQQOOEyOIP9fNzbtLB772rz169Rzdec6Wu/smv9ef33tPvZlSnufJD27Vhw3YdtBNXpSorSrX1s+XaXlygQ8WdNe2cmSp49gn9s6r1slJfvPik1n/p25oz2AyW6WDeeq3buk/FXugJl6qo8LDKK0p0YPceFXQcrzPOn62RHd3xseapLFfB9vXauLu46kTRmnUqt8srM4ZpeNGfdc8bB+ypHBVa8af7tWnIBGWFfW2UMdcXVtGujVqfd0jl7ihbuKumX7tQd955p3372VxrYyO3y50hXLxHm9evV15+mVtnizet1c3ftkl5h9yJS/Zry4bN2nvYnbLofd107i9V+qN/aJn9OH1X37vpbj3//E91dHqMOtZXfwAAkHIaJUTmv3W/Hku7SLdcOlbt3TJHSM5PSBZqye1f04gR0zTntKlW9zTds2Kl7pp9sm5ekqeXrjlBE06/U9unztfpob/pca/1MrxGzz+2Xsf856nqX7BYPzg6V5NPnqd5X56gkTMW6AMTNvMe0txJ39Bl/zFFo8eeobvff1BzJ16sl/OtcXXO87A1z5m6ZP5xOu7UOTp++EBN/9USlVSurVWnNVb+qizroOO+Plbv3PWctpp6GQXv6N6Hy3Xi9J7VgSrm+s7WVRcepyNnnKavHDFEI8+4T6t8LZtVP/TuidyuNQX69I45GjFwkmZ9/TQdO2ygjr3+NecwurX8r0+aq29/Y5qmn3qSJgw8Qtf+4Veae8Rx+upXj1XusNO1aH1Y+Ysf0FMZF+vmS8ZEPE6WWHVsQP0BAEBqaYQQWamdq1ZL44/UUPuCJZXa/MZ9uuOOO+zbA2/nqXTJrbr4np66fek6rVi5VouvLdDCX67SN199SzcckaO5f1iiTa9/X6OzjtX8s7vpnac/kDkzsuLzZ/TE9hk6b1ZvK1B219xFy7Tu80+0ZPnLuqjgj3r4Azds7l+uojNeVd6ed/Sj4WlOmRFrnt0rVTH/b1q2bKVWPnu2tt//gD4sHqVrIutkFmcFvIFnXKtTN/xeD33mHLje9tc79OaoS3TuCN/PHMVa366PtWPmU1q+coXWbnhR89Yu0M9e2O2MS9+p566bo9mzZ2v2V+frDu+4uW+7riv+jS78bQctWLJJa5Z9rk2r/1djn75MN73pnkO6e4Oyr3pDn634Qu/e0FUP3vCOTn95hVas/lSLjl+hh55brR01HqcoYtUx1jgAAJByGqUl0lz6JlxWJue7GZUq3rVOq1at0sdP3qk/Ly/R5nff1L5u+frLVedo3rz5uvHNAhV/8bl2uF/myMho5/Sog476xmyl/+0xvZdfrs+ee0HFs8/TSeY3zbuO07CDT+iGC+dq5vHn6aGNh1VY6J6J2HGyZs8arPSqlk9XrHm6H6e50/vIZMTsMUdpeHi39hx2RhnVdXJUdjlRl1/QUU/f97YOlS/XH+9ao5OunKP+lb6TCWOtr9vxOnf2EGWY/k5Has6pPbR+xRanFTPcW1PPu0KXXnqpLr38mzqujxtMfdu19f23VTDzAs0Z7NQr1GuGzj0lQ0s+3uzs9x5H6eQjsq2eDA0cN1J9xn1FX841a+up4eP7qHT/QVVYGxsuL3cfpyhi1THWOAAAkHIaIUSmKWfyJGX88xV9bJ8yGNLo+b/RvffeorNzzXClwhVhhQbP0iXfvUKXX365rrju1/rTwrOVY0ZHyJx8js7u+ZYef32xnnoyX7POnaYuVvmeFy7WzCvf06BvLdCD//eMfnKUd9KjJbOLutY6PlvPPKEMZXhbH0pXej17osJKYOO/dbGGvrpQD//5Lv0p4wJdPbOH2rWzY5Ut5voyOqhjVS4tV3FhqULWvPZqK0PKOfp0nXHGGdbtdB070A2RVdtVqcpwWOWlpTUCYCjNhOY0OwgrzbcNVkGatWyvjTTNmsYU9p84QaGPXtG/zKH+aGLVMdY4AACQcholA2RNv0bfG/Wqrvvuw/q80Du3r0JW7rGkacCRRyn9Xx+pYNxMzZo1S7NmTlL/vr3UIxRSRnpYRcUl9hy2jPH6xvwB+vCeW/Ri5df1zWM7WYUV2rZslTJnfEfnz5qiISX/1pvLzWFiOz7VIZ55jCh1spirsqQPPFPXztmlP9z8vsZe+Z8aZ6W0tKrF1bO+vR/ohff3WHFQCu96Q4++Uqmp00c08AFI06Cpxytr8SN6cbPT9hfe87YVtNM17YTcerfI0/nEq3TV0Jd09RV/1Koi73Eq175Vn2ubaVCNVceE6g8AANqaxskA7cbo6qef1SUFt+iE/j2VM3SIBvQaoYve76cJAzOVddJ/6c6zVumS0QM1dsokDRtwjH74zkFrxv6adkpfvX7FNI0/baFW27kmXWPPOFv9/vmBOpw7X0fYLXHpGjPnLPV47EyNHT9eo2c/o9Ao861vLwhFE888RrQ6mRhnoloXnXjxmeqScaKunhvZjlrP+voMVf7t0zRywjgNGX2JVp17r26cbgKypQEpsMOxN2jR1Yf000kDNHqitYyxVynv8od001Rfa2d9Mifq+uee0vl7F2hqv14akJurQX36aswFT2q7qWasOsYaBwAAUk7amLFjnS8GW3d23LG71j9fmT2BW55rBY83Xn9dS5cu1cSJE80cNZQd3KFtuwqU1rWfcnp3VruqgFSp0v1btWWflN0/R706eQdbK1S0a5v2ZfbTwG7eNz7CKisqUnm7zr5DqFbp4X3K23lYXfr3V1ZFocoyrPGhEhUdrlRmpw7KMOsKl6rYGm7Xsb093NB5ioor1K5TR7e+/jqlq6TwsJXistTernJY5eVShncsvKxYhWErKDsjo69v5/2adeI7uvpfizS9IE8FnQdoUI/2bnasiFi+qyKijq6Kgp3avLNYWf0GqU+WO0PktOVWncqtOnVw61RaqGJ1VFam938G67E4sF3bdhcqlJ2jAb2zlLEtRh23xqq/Y9myZZo8ebI7BAAA2pqTZ83Shg0brM9/KwGkpTX+0ch2VngcOmKEhvTxB0gjTZndB2n48EG+AGmkq1Ofwb4AaYSsQFczQBqhDj00cEiOsjPTlNHRHZ/eXp2yfEErlKmOnZwAaQ82cJ5OWV6ANPx1Slf7LH/AC1UHSKOdFc586S/q+jyhDuoxeJgG1whgkct3RdbRld65r3KHD60OkEbktBlWndwAaYQys3wB0rAei245yh050nqcrADpX0fUOrpijQMAACkl7hBpzhGsqPB9Mxl1q0xXh06ZCtlNvS1UrDrWU3+eBwAApJ64D2evW7dOnTp1Ut++fc1cSGF79uxRUVGRhg4d6pYAAIC2ptEOZw8aNEh79+61AwQtUanJPO47d+7Url27lJMT7QebAABAWxV3S6RRWlqq1atX20HCWQhSSUZGhnr06KGxY8cqM7Ouy+AAAIC2ILIlMqEQCQAAgNTQ5N/OBgAAQNuX8OHsLVu2qLi4OOXPi8zOzrbPC+SwLgAAaIsa7XC2CZBr1qxRr1697FsolLqNmuFwWPv27bO/YDJq1CiCJAAAaHMa7XB2Xl6e/fM+ffr0SekAaZjtN0G6Z8+edsssAABAW1eV/uxWSK/rDjj9zoC/3MjPz1e3bt3cIRgmSJpD+wAAAG2RfXDa7U+oCdFctQbVuIoPAABIFal9HBoAAABxIUQCAAAgsMRDZOUmvXHvb3XrrbfWuN12253629rqQ7uVmx/WvGO+o2d3uQVNrXKbFt9/ux75aL8zWLBWr973C33v8kt15Q9/pceWOOW24s1695FbdP3ll+iy627U3S+u1IGwOy7S1vt0yrD/1PMHIvoBAABSSCOEyHId2L7J/lby5o+f0O+fXqItW7daw3tU6E5ipGVP1lkXztHYzm5BU0s7rE8fuVtv7k6T9r2qK4+epuv/XqhBkyZrSOVSvfTuFpmcWLz895o7ZoouenSruo2bojE99uu1RX/VFzFObfR9v6hGPwAAQKqo+p1I58ci3a51M0PR+nOHOb8TuXTpUk2cONGex7P1odk66cXz9MGz89UnXKqi4rAyO6SpYN8hZWR3VajMGu7UQRlWrjPK8rdp64FM9R3YQxklhxVun6UO7nd1Yo0rP7RdVkZVz4H91bWdVRC5ru691DljnRaecIo+/cknukPXauKNw/TSxz/TpAxnGbai9/XDL83Tsivf0vPfHaP2bnGVyjId3L5Fu8PdlNO/hzqa9W+9T7NOfFdXf/Jnfb3A1+9+UX3ZsmWaPHmyMwAAANBGmN+JXL9+g9LMD4036WUP8x7S3Enf0GX/MUWjx56hu99/UHMnXqyX883Ig/pgwUkanHuMvnbadE0+cZ5OO+rLWrjGtA3GGleoJbd/TSNGTNOc06Za3dN0z8rS2uuyp63WadAI9dn4nB58fbvK3DIjf/EDeirjYt18SZQAWbBYPzg6V5NPnqd5X56gkTMW6AN/0yoAAEAKa9ov1uxfrqIzXlXennf0o+Fu86OlbMlvdcV9PXXrZ5u1avkqffLrEdq51bR3xh5XuuRWXXxPT92+dJ1WrFyrxdcWaOGCF7XHjPSva0zNzWo3+cd6+n+P09vzRyp3xvf1xCqTBiu1c9VqafyRGhrtAjPh7pq7aJnWff6Jlix/WRcV/FEPf1DgjgQAAEhtTRsiO07W7FmDlW6txn9Rmy3vv60Dx8/XVwc6x6e7HDVHJ/a3e2OO2/zum9rXLV9/ueoczZs3Xze+WaDiLz7XDtPwWMe6HJkaOu8P+mTLJ7rruE/1/S8doUtftqKnlWvD5eX2uZG1dB2nYQef0A0XztXM48/TQxsPq7DQ344JAACQupo2RGZ2UdfaJxqqrKRU6R06qOr0xPLDOlxuemKPC1eEFRo8S5d89wpdfvnluuK6X+tPC89Wjhkdua5wiQqLpfYdqk+CTOs8Smf+6nW9d9tQPf/Lh1Q4YYJCH72if9mH2Gva88LFmnnlexr0rQV68P+e0U+O6uiOAQAAQNOGyKjS1H/ieFUsfkrv7LG/sqPdbz+hN3bUP27AkUcp/V8fqWDcTM2aNUuzZk5S/7691KPGVlSa7/+oYtsH+seu4TpyVGftfuevenNbiTXGKFdJSYUyOnZS9olX6aqhL+nqK/6oVUXOWDN+36oVWrJ0lTJnfEfnz5qiISX/1pvLzaHs6kPyAAAAqSxkApedumxON/q98y1tt6BuDchZXWf9TLd++SOdN3Koxk8Yoy8vSteUwfWPyzrpv3TnWat0yeiBGjtlkoYNOEY/fOegM9JT9JaunTJQAyf8WPsv/qW+Zc1bufNJfXtUT/UakKuhOQN0wu/a6drfXKBh7Sfq+uee0vl7F2hqv14akJurQX36aswFTytr9lnq8diZGjt+vEbPfkYhK4zWv/EAAABtVFUMsnqs7Jg2esxYu+nOKXda8Zyf+4nsd4aHWUHrjTei/8RPZVmRCsPt1bl9ulRRoqLDldU/6RMuVbE13K5je/cnfsIq3LFRO8O9Nbjdyzr32D/p9Pdf1gX2+Y+xxlWqdP9WbdknZffPUa9OkeuqUNHOLdoV6qchvTtUZdpwyQHtyNursk691K93ttpHtF6WHtiubbsLFcrO0YDeWXYdw4f3KW/nYXXp319ZFYUqy+isjiGzLlnrsrYj7Ot3V8RP/AAAgLbo5JNnaf0G8xM/ps2wkX/iJ61dJydAGunt1Smr+jchFcpURzdsVW58QXc++A/tCHVT9/RNevKnN+vfk/5Dp1ghMdY4R5oyuw/S8OGDnABp1FhXujr1HaqhvgBphNp3U07ucA3pGxkgDWuZ3XKUO3KkhvRxAqQR6tBDA4fkKDszTRkdrQBpfpPSXpcbGv39AAAAKSTuEJmenq6KihiXdYkhrX0H7Xv5B5r9pYmacOy5WpR+rf76p/M0oJ5xLV28+wMAAKC1iftw9rp169SpUyf17dvXnhPSnj17VFRUpKFDh7olAAAAbUOjHc4eNGiQ9u7dawenVG+BM9u/c+dO7dq1Szk59g8OAQAAtGlxt0QapaWlWr16tR2gnOlSU0ZGhnr06KGxY8cqMzPa5W8AAABat8iWyIRCJAAAAFJDk347GwAAAKmBEAkAAIDACJEAAAAIrEaItE9/dM+OdDr+fgAAAMBBSyQAAAACI0QCAAAgMEIkAAAAAiNEAgAAIDBCJAAAAAIjRAIAACAwQiQAAAACI0QCAAAgMEIkAAAAAiNEAgAAIDBCJAAAAAKrHSJrXTq7srrfvri2PQQAAICUYmVAkwWdP1oiAQAAEBwhEgAAAIERIgEAABAYIRIAAACBESIBAAAQGCESAAAAgREiAQAAEBghEgAAAIERIgEAABAYIRIAAACBWSHSu6yhfe9w+51y5843FgAAACnKy4S0RAIAACAwQiQAAAACI0QCAAAgMEIkAAAAAiNEAgAAIDBCJAAAAAIjRAIAACAwQiQAAAACI0QCAAAgMEIkAAAAAosIkf7LGzp97lUP7TvnHwAAAFKNyYDV6bCSlkgAAAAER4gEAABAYIRIAAAABEaIBAAAQGCESAAAAARGiAQAAEBghEgAAAAERogEAABAYIRIAAAABEaIBAAAQGCESAAAAAQW8i6G7b8mtt1vXxbRKa0a9ncBAACQOrxAaP6sGy2RAAAACIwQCQAAgMAIkQAAAAiMEAkAAIDACJEAAAAIjBAJAACAwAiRAAAACIwQCQAAgMAIkQAAAAiMEAkAAIDAaoZI73I2VfeGb7i6EAAAACnIi4O0RAIAACAwQiQAAAACI0QCAAAgMEIkAAAAAiNEAgAAIDBCJAAAAAIjRAIAACAwQiQAAAACI0QCAAAgMEIkAAAAAiNEAgAAILCQc03sGNfH9g37pgIAAECKcSOjjZZIAAAABEaIBAAAQGCESAAAAARGiAQAAEBghEgAAAAERogEAABAYIRIAAAABEaIBAAAQGCESAAAAARGiAQAAEBgdoj0X86w+r7S7bfY17ipGgIAAEDK8bKg1bWyIS2RAAAACIwQCQAAgMAIkQAAAAiMEAkAAIDACJEAAAAIjBAJAACAwAiRAAAACIwQCQAAgMAIkQAAAAiMEAkAAIDACJEAAAAIrDpE2pdDdK6JaF8q2+a/fnbVHQAAAFKMmxKr4iAtkQAAAAiMEAkAAIDACJEAAAAIjBAJAACAwAiRAAAACIwQCQAAgMAIkQAAAAiMEAkAAIDACJEAAAAIjBAJAACAwOoOkVVXOKx56cOqfgAAAKQWNwiaDi2RAAAACIwQCQAAgMAIkQAAAAiMEAkAAIDACJEAAAAIjBAJAACAwAiRAAAACIwQCQAAgMAIkQAAAAiMEAkAAIDACJEAAAAIzAqRzkUQ7fvqu+peZ9DrAAAAIIV5SZGWSAAAAARGiAQAAEBghEgAAAAERogEAABAYIRIAAAABEaIBAAAQGCESAAAAARGiAQAAEBghEgAAAAERogEAABAYKFa1zP0DVf3mr7KWpMCAAAgdfizIC2RAAAACCx4iOw5wO0BAABAqqIlEgAAAIEFDpGdO2S6fQAAAEhVgUNkVkdCJAAAQKpLe+6+myorKsKqqKjQjj1bteLjlXp9db4qKyvtmyq76PiZE3VE/46qCFeoqCJTP//Nve7sAAAASAUzv/xlrVu3XmlpadYtoiWyV/ccHX/yTN147jGa0dMtNLp2dnsAAACAug5ndyc0AgAAoG5po0aNNgetVVmZrX6jc3TSlBHqtv5N/f5D55C2dWf/zLhzeLuzZs2drgfv4nA2AABAKql1OPv6C0/Q+ccP1hG9pR2rVujxx/6qez866E4OAAAA1Bbq3T1HY750jL4x/2T9/KozdeP8YzWpV1drFBc5BAAAgJ99/Nruq31OZLd+mvuNGZo3ItstAAAAAGoK/fj2v+uuV/6pZ/6Vp71uoTFySo76uv0AAACAX0g6oO2rNmnJP1bqnQ1uqdGts3q7vdUOqeiw2wsAAICUFfr198/Rzdedrf++ZpbOzHVLjU3btdzt9du5v8DtAwAAQKqK/juRB7brpde2ugMR9u5xewAAAJCqaoTIvfu36/03FmvRE//UMresthK3CwAAgFSVNnLUaPOL4uY3xd0fFHe+uu30m16rWzVcqeHDhuutt960ZwYAAEBqcH5sfJ37Y+NpdRzOBgAAAGIgRAIAACAwQiQAAAACI0QCAAAgMCdEul+gqRLZ6xsGAABACvLyoOlaN1oiAQAAEBghEgAAAIERIgEAABAYIRIAAACBESIBAAAQGCESAAAAgREiAQAAEBghEgAAAIERIgEAABAYIRIAAACB2SEy6lUNfYV2r3uJGwAAAKQoNwuaDi2RAAAACIwQCQAAgMAIkQAAAAiMEAkAAIDACJEAAAAIjBAJAACAwAiRAAAACIwQCQAAgMAIkQAAAAiMEAkAAIDACJEAAAAILGqIrL5EdvUFs6vLAAAAkKq8TEhLJAAAAAIjRAIAACAwQiQAAAACI0QCAAAgMEIkAAAAAiNEAgAAIDBCJAAAAAIjRAIAACAwQiQAAAACI0QCAAAgsIgQWfOCh9WDXPQQAAAgtfnzYCUtkQAAAAiOEAkAAIDACJEAAAAIjBAJAACAwAiRAAAACIwQCQAAgMAIkQAAAAiMEAkAAIDACJEAAAAIjBAJAACAwAiRAAAACMwKkc51EGteKzsWrqMNAACQupwsSEskAAAAAiNEAgAAIDBCJAAAAAIjRAIAACAwQiQAAAACI0QCAAAgMEIkAAAAAiNEAgAAIDBCJAAAAAIjRAIAACAwN0T6Ln1o3/uGqwYrq3sBAACQUpwcWJ0EaYkEAABAYIRIAAAABEaIBAAAQGCESAAAAARGiAQAAEBghEgAAAAERogEAABAYIRIAAAABEaIBAAAQGCESAAAAARGiAQAAEBgoVoXw44YrjkYOTEAAABSiomD1o2WSAAAAARGiAQAAEBghEgAAAAERogEAABAYIRIAAAABEaIBAAAQGCESAAAAARGiAQAAEBghEgAAAAERogEAABAYKH6LmSY5nadKx5WDQEAACAVuXGQlkgAAAAERogEAABAYIRIAAAABEaIBAAAQGCESAAAAARGiAQAAEBghEgAAAAERogEAABAYIRIAAAABEaIBAAAQGDRQ6R9iUPngog1L4tY30USAQAAkApoiQQAAEBghEgAAAAERogEAABAYIRIAAAABEaIBAAAQGCESAAAAARGiAQAAEBghEgAAAAERogEAABAYIRIAAAABEaIBAAAQGBOiPRdK7sKl8kGAACAn8mHbkakJRIAAACBESIBAAAQGCESAAAAgREiAQAAEBghEgAAAIERIgEAABAYIRIAAACBESIBAAAQGCESAAAAgREiAQAAEFjUEFl9xUOnr2q4egQAAABSlImEtEQCAAAgMEIkAAAAAiNEAgAAIDBCJAAAAAIjRAIAACAwQiQAAAACI0QCAAAgMEIkAAAAAiNEAgAAIDBCJAAAAAIjRAIAACCwWiHSXAsxzel1ccFsAAAA1ERLJAAAAAIjRAIAACAwQiQAAAACI0QCAAAgMEIkAAAAAiNEAgAAIDBCJAAAAAIjRAIAACAwQiQAAAACI0QCAAAgsOoQ6V7d0FzykAsdAgAAIBZaIgEAABAYIRIAAACBESIBAAAQGCESAAAAgREiAQAAEBghEgAAAIERIgEAABAYIRIAAACBESIBAAAQGCESAAAAgREiAQAAEFh1iDQXzbZw3WwAAABE5eZFg5ZIAAAABEaIBAAAQGCESAAAAARGiAQAAEBghEgAAAAERogEAABAYIRIAAAABEaIBAAAQGCESAAAAARGiAQAAEBg1SHSvt5hXRc95GKIAAAAKc8XCWmJBAAAQGCESAAAAARGiAQAAEBghEgAAAAERogEAABAYIRIAAAABEaIBAAAQGCESAAAAARGiAQAAEBghEgAAAAEZodI+wo2aVV3UbjldY0GAABASqElEgAAAIERIgEAABAYIRIAAACBESIBAAAQGCESAAAAgREiAQAAEBghEgAAAIERIgEAABAYIRIAAACBESIBAAAQGCESAAAAgdkh0r4ktn0BbfsOAAAAqM0OjQ5aIgEAABAYIRIAAACBESIBAAAQGCESAAAAgREiAQAAEBghEgAAAIERIgEAABAYIRIAAACBESIBAAAQGCESAAAAgREiAQAAEIi5+iEhEgAAAIERIgEAABAYIRIAAACBESIBAAAQGCESAAAAgREiAQAAEBghEgAAAIERIgEAABAYIRIAAACBESIBAAAQGCESAAAAgVWHSHMRROfO1+sMAwAAAH60RAIAACAwQiQAAAACI0QCAAAgMEIkAAAAAiNEAgAAIDBCJAAAAAIjRAIAACAwQiQAAAACI0QCAAAgMEIkAAAAAosaIivdriONKyACAACgBloiAQAAEBghEgAAAIERIgEAABAYIRIAAACBESIBAAAQWNQQ6XwRO9rXsd1vagMAACA1mTBo3Xwh0hcd7Tvnh36qhwEAAJCqTBz0NyfGOJztS47uD0eakvKKCu3evdspAAAAQJtnsl95eYU75KgjRPoCpBM7vTuVHC7RmrVr7X4AAAC0fSb7HS457A45mTDky4e1+Iu9/pLSEq1ds8YdAgAAQFtnsl9pSand72TCtCgtkdGSo9djdQoOFejRR/+irVu3OmUAAABos0zmM9mvoKCgRk4MOQNOSY37qnJn2OuUlZVpx44duvuee5wCAAAAtFkm85nsZzKgzcqEJham9+zZ8+dOiaVmXqxSHSgd5pj43j17tW7dOo0ZM0Zdu3Z1xwAAAKAtMC2QN998i958603t3bvXLkszodC62Z2Ro0ZXWiTrZr6EXd1v/XMKovdbsrO7ql+/fvrPb31LI0eO1KhRo9S7d29nJAAAAFoV8y3sNWvWaO3atfrzo4/aLZAH8w86I01wtO9MiLRukSGyrtBoTxOlvF27DHXp3EWZ7TPVoX0HpaeHrDH2pDHEHBlT3HPGv8oENP9KW9dmJqW2zS5FnnqW1Hg8k6P6SFCbloTNTJE9a4lzS1PmMWn+tZqWvOYXY6XWKDPW/IxPSclhlZSW2udAlpWVO62O9gRuC6TXXxUirQ8Au+N2o4dGM8IZZ/45f75y566qWxd7fLzinDUZ60xE3PWNu67xb2QSdk/rekxamxTZTNTDfJqgTvaHaHNLYJXxz9p6tjMZj4l9aLe5JbDKmPvIGlUVDqv6na5zCNsrqx5vh0gnJFrcrhMKTb89qma/3TXj7b4a/bW6dbDnaW4JrDLWtsSUlM1MgbomIgmrTERS9hGQJPYHVCqIczMT2ztJWWlckvI8iHv3JFDXFrZOe7n2n79r3fvLzLBXbuYZZVoizUeV+ayy+0zHvveVWT3mr1Z/xHjzzym0/+rizhmfOGdNlXXGK6G6xisJq0xkpa2sumgiyXitOG/XqFMSdk9iq4xz7lb0NEjKczaBVcZd37a0TnuUNYXVtaer6vrLnH57yPSPGm0OZ1tvjE76c7vW26TdMW+Xdfc7f9VdZ0HVZXWxxze3BFYZd32TspkpUNdEJGGViaw0KdVNFa1p59pv2m1fcjYzCWtNyiqbeaUJrK7Z62rEucqE6pqMdcZiQqHdse7tP3Pnrs0drjXOC5FOMPS61j9fWY1gaXetHvvP7brTOdN742JwFhQXd03NK85VJlTXZt7M1lTXRCTl+ZOIVlbd+KXMhjYz++2/7Wtlm+l+LDevZl5la9vGuOvbytYZa2Z7jHVn18sExKr+mmX2kOk3faNGj7EyoHkDtz5e7Y7zMVs7ONYxzi1zulaf/ed06+LOEZ84Z01onfFKaDObub5J2T2t6zGJV1K2E00nGQ+n/caNujgfZ61IEqrb7PuotW1jnLMm5bnnJLm4xJzTGmlvj/mz1+FuXZTw6JXZITJqOPS6NcZFTGOPs3rsvyjdusQYVZ+Yy40lgXXGK+66JsB7nJpVElYZr2Q8Jq1p/yRLUh6XFOC+3SOWJOyipDwureip4ASY5hX3Y5JQVeObualWae8D+8/fdfeMFxrdMqfIGooWIt2/qkDSkODoTOoOu/PVxZ4vXnHOmox1JiKh+sYjod2ThB0Ur1R4LBPVyqqLJuJ8TrQK7sdc65GE6jb7PkqFbTTcQBWPuOdMYDNj7iNrlD3ensTq8w07XXdu03V63BBpPubsDw63awfF2t2aIbOOaX3lTcFbS2AJVCfudSaimVfZ2rYxKfWNVyuqaippTc8h960bTaEV7dqEngfNvJ1Jec4mZZXN/5g02b61FuscrnaXHxEa7aGqrjPODZGWyDDodmu0QkZ23Wnq7NYp9tiY4py1vhrFlMCs8Yq7vq2prsnA/kGikvFwmndrNAn3Y7J5taLHszXtn9b2WMZd34Q2s+6Z7TH+4BjZdXrsrl1qykaPMV+sMSOsjzr3zdEuqAqCbnldwzG6dal7TAPEWG5TcbeoecW5yvhrmsA2JmH3xCspj2UypMxmpsiGJoH70dG8krDKZEiNfRv/CuOeM4FtbE2PSZPV1R8YG9qtDpHWG3J1j/PWXKNr9dl/1j93Mm+811rpjXf/Yog9NpaqdQcW/zoTmTVezp5tRknZPa3rMUmGZn8eAK2Q+5HWeiShus2+j1rbNram+iZU17pntsdYd3a9ogRGr1M9Xvr/6x55FztwvHEAAAAASUVORK5CYII=;" vertex="1" parent="1">
          <mxGeometry x="1380" y="1210" width="657" height="539" as="geometry" />
        </mxCell>
      </root>
    </mxGraphModel>
  </diagram>
</mxfile>
